<svg xmlns="http://www.w3.org/2000/svg" viewBox="0 0 192 150"><defs><linearGradient id="bg" x1="0" y1="0" x2="1" y2="1"><stop stop-color="#fffaf3"/><stop offset="1" stop-color="#f4e9fb"/></linearGradient><filter id="s"><feDropShadow dx="0" dy="6" stdDeviation="5" flood-color="#5c416d" flood-opacity=".18"/></filter></defs><rect x="2" y="2" width="188" height="146" rx="30" fill="url(#bg)"/><ellipse cx="96" cy="118" rx="63" ry="12" fill="#d8cce3" opacity=".45"/><g filter="url(#s)"><path d="M59 91c7-30 23-49 49-49 26 0 39 18 34 42-5 24-27 36-52 30-19-4-35-10-31-23z" fill="#d98861"/><path d="M118 54c11-16 22-21 33-13-1 15-9 27-23 34" fill="#9c5138"/><circle cx="98" cy="70" r="6" fill="#f1d36b"/></g><circle cx="157" cy="28" r="12" fill="#fff" opacity=".75"/><path d="M153 28h8M157 24v8" stroke="#d7b9e4" stroke-width="2" stroke-linecap="round"/></svg>