<svg xmlns="http://www.w3.org/2000/svg" viewBox="0 0 192 150"><defs><linearGradient id="bg" x1="0" y1="0" x2="1" y2="1"><stop stop-color="#fffaf3"/><stop offset="1" stop-color="#f4e9fb"/></linearGradient><filter id="s"><feDropShadow dx="0" dy="6" stdDeviation="5" flood-color="#5c416d" flood-opacity=".18"/></filter></defs><rect x="2" y="2" width="188" height="146" rx="30" fill="url(#bg)"/><ellipse cx="96" cy="118" rx="63" ry="12" fill="#d8cce3" opacity=".45"/><g filter="url(#s)"><path d="M48 65h96c-3 31-20 48-48 48S51 96 48 65z" fill="#b8752f"/><ellipse cx="96" cy="65" rx="48" ry="18" fill="#e7a956"/><path d="M77 42c-10-12 4-18 0-30m24 30c-10-12 4-18 0-30m24 30c-10-12 4-18 0-30" stroke="#d5b28a" stroke-width="4" fill="none" stroke-linecap="round"/></g><circle cx="157" cy="28" r="12" fill="#fff" opacity=".75"/><path d="M153 28h8M157 24v8" stroke="#d7b9e4" stroke-width="2" stroke-linecap="round"/></svg>