<svg xmlns="http://www.w3.org/2000/svg" viewBox="0 0 240 240" role="img" aria-label="치즈냥">
<defs>
  <linearGradient id="fur" x1="0" y1="0" x2="0" y2="1"><stop offset="0" stop-color="#ffd86b"/><stop offset="1" stop-color="#f4a942"/></linearGradient>
  <linearGradient id="cream" x1="0" y1="0" x2="0" y2="1"><stop offset="0" stop-color="#fff7d8"/><stop offset="1" stop-color="#ffefbf"/></linearGradient>
  <linearGradient id="cheese" x1="0" y1="0" x2="1" y2="1"><stop offset="0" stop-color="#ffe75a"/><stop offset="1" stop-color="#f5c51a"/></linearGradient>
  <filter id="shadow" x="-20%" y="-20%" width="140%" height="140%"><feDropShadow dx="0" dy="8" stdDeviation="8" flood-color="#7a5a2b" flood-opacity=".18"/></filter>
</defs>
<g filter="url(#shadow)">
  <g transform="translate(120 120)">
    <ellipse cx="0" cy="64" rx="78" ry="22" fill="#f8ecd2" opacity=".7"/>
    <path d="M-73 49c6-20 20-36 41-43h64c21 7 35 22 41 43-10 20-31 35-73 35s-63-15-73-35z" fill="#fffdf7" opacity=".95"/>
    <path d="M-55 52c-10 20-7 39 8 48-16 5-28 2-37-8-9-11-10-26-3-38 8-14 22-17 32-2z" fill="#efb252" stroke="#8c6332" stroke-width="4"/>
    <path d="M55 52c10 20 7 39-8 48 16 5 28 2 37-8 9-11 10-26 3-38-8-14-22-17-32-2z" fill="#efb252" stroke="#8c6332" stroke-width="4"/>
    <path d="M-48-28c-18-13-23-29-18-49l29 21" fill="#f2b44f" stroke="#8c6332" stroke-width="4" stroke-linejoin="round"/>
    <path d="M48-28c18-13 23-29 18-49L37-56" fill="#f2b44f" stroke="#8c6332" stroke-width="4" stroke-linejoin="round"/>
    <path d="M-29-57-17-48-34-34" fill="#fdcb87"/><path d="M29-57 17-48 34-34" fill="#fdcb87"/>
    <ellipse cx="0" cy="2" rx="61" ry="57" fill="url(#fur)" stroke="#8c6332" stroke-width="4"/>
    <ellipse cx="0" cy="14" rx="43" ry="37" fill="url(#cream)"/>
    <path d="M-27-16c10-9 43-9 53 0" fill="none" stroke="#ffefb2" stroke-width="6" stroke-linecap="round" opacity=".55"/>
    <path d="M-39-3c7-1 13-4 19-8M39-3c-7-1-13-4-19-8" stroke="#d78f33" stroke-width="4" stroke-linecap="round"/>
    <path d="M-28 5c5-7 11-7 17 0" fill="none" stroke="#3a2a1a" stroke-width="4" stroke-linecap="round"/><path d="M11 5c5-7 11-7 17 0" fill="none" stroke="#3a2a1a" stroke-width="4" stroke-linecap="round"/>
    <path d="M-7 17 0 22 7 17" fill="#f1a49d" stroke="#8c6332" stroke-width="3"/>
    <path d="M0 22v5" stroke="#8c6332" stroke-width="3" stroke-linecap="round"/>
    <path d="M-18 34c11 13 45 13 56 0" fill="none" stroke="#8c6332" stroke-width="4" stroke-linecap="round"/>
    <circle cx="-31" cy="20" r="4.5" fill="#f8c58a" opacity=".65"/><circle cx="31" cy="20" r="4.5" fill="#f8c58a" opacity=".65"/>
    <path d="M-31 56c-6 12-6 25 0 37h15c0-13 2-26 5-36z" fill="#fffef7" stroke="#8c6332" stroke-width="4"/>
    <path d="M31 56c6 12 6 25 0 37H16c0-13-2-26-5-36z" fill="#fffef7" stroke="#8c6332" stroke-width="4"/>
    <g transform="translate(4 86)">
      <path d="M-39 22-1-18 47 5 9 43z" fill="url(#cheese)" stroke="#d0a014" stroke-width="4" stroke-linejoin="round"/>
      <circle cx="16" cy="11" r="5" fill="#f9dd59"/><circle cx="1" cy="25" r="8" fill="#f9dd59"/><circle cx="24" cy="26" r="4" fill="#f9dd59"/>
      <path d="M-6 4q-13 7-19 19M12 5q0 12 4 21" stroke="#8c6332" stroke-width="4" stroke-linecap="round"/>
      <circle cx="-4" cy="7" r="5" fill="#fffdf7" stroke="#8c6332" stroke-width="3"/><circle cx="12" cy="8" r="5" fill="#fffdf7" stroke="#8c6332" stroke-width="3"/>
    </g>
    <g fill="#fff1a5"><circle cx="66" cy="-62" r="4"/><circle cx="77" cy="-50" r="3"/><circle cx="-61" cy="-68" r="3.2"/></g>
  </g>
</g>
</svg>