<svg xmlns="http://www.w3.org/2000/svg" viewBox="0 0 192 150"><defs><linearGradient id="bg" x1="0" y1="0" x2="1" y2="1"><stop stop-color="#fffaf3"/><stop offset="1" stop-color="#f4e9fb"/></linearGradient><filter id="s"><feDropShadow dx="0" dy="6" stdDeviation="5" flood-color="#5c416d" flood-opacity=".18"/></filter></defs><rect x="2" y="2" width="188" height="146" rx="30" fill="url(#bg)"/><ellipse cx="96" cy="118" rx="63" ry="12" fill="#d8cce3" opacity=".45"/><g filter="url(#s)"><path d="M45 82c10-28 28-46 52-50 4 11 2 22-5 32 12-5 25-5 38 1-8 27-28 42-58 42-13 0-22-8-27-25z" fill="#f4b85a"/><path d="M66 89c8-17 21-29 37-34" stroke="#d88a2a" stroke-width="9" stroke-linecap="round" fill="none"/></g><circle cx="157" cy="28" r="12" fill="#fff" opacity=".75"/><path d="M153 28h8M157 24v8" stroke="#d7b9e4" stroke-width="2" stroke-linecap="round"/></svg>