<svg xmlns="http://www.w3.org/2000/svg" viewBox="0 0 240 240"><rect width="240" height="240" rx="40" fill="#fff1d9"/><g stroke="#6f4b26" stroke-width="7" stroke-linecap="round" stroke-linejoin="round"><path fill="#efa742" d="M57 94 44 45l48 28c17-9 39-9 56 0l48-28-13 49c18 17 24 46 14 73-13 35-43 52-77 52s-64-17-77-52c-10-27-4-56 14-73Z"/><path fill="#fff8eb" d="M76 158c20 20 68 20 88 0-15 36-73 36-88 0Z" stroke="none"/><path d="M80 102c8-11 18-12 28-2M132 100c10-10 20-9 28 2" fill="none"/><path d="m113 139 7 5 7-5" fill="none"/><path d="M120 145v7M104 156c8 7 24 7 32 0" fill="none"/><path d="M68 114 50 108M68 130l-20 2M172 114l18-6M172 130l20 2" fill="none"/></g><path d="M79 83c11 3 17 8 22 17M144 86c-9 3-15 8-20 17M112 74c9 7 15 7 24 0" fill="none" stroke="#b66a21" stroke-width="10" stroke-linecap="round"/><path fill="#f7c948" stroke="#6f4b26" stroke-width="6" d="M160 169h40l-8 28h-38Z"/><circle cx="179" cy="181" r="5" fill="#fff1a8"/><text x="120" y="229" text-anchor="middle" font-size="21" font-family="sans-serif" font-weight="700" fill="#6f4b26">치즈냥 · Fromage</text></svg>
