<svg xmlns="http://www.w3.org/2000/svg" viewBox="0 0 240 240" role="img" aria-label="치즈냥">
<defs>
  <linearGradient id="fur" x1="0" y1="0" x2="0" y2="1"><stop offset="0" stop-color="#ffd66d"/><stop offset="1" stop-color="#f1a23c"/></linearGradient>
  <linearGradient id="cream" x1="0" y1="0" x2="0" y2="1"><stop offset="0" stop-color="#fff8d9"/><stop offset="1" stop-color="#ffefbe"/></linearGradient>
  <linearGradient id="cheese" x1="0" y1="0" x2="1" y2="1"><stop offset="0" stop-color="#ffe85d"/><stop offset="1" stop-color="#f2c018"/></linearGradient>
  <filter id="shadow" x="-20%" y="-20%" width="140%" height="140%"><feDropShadow dx="0" dy="5" stdDeviation="6" flood-color="#7a5a2b" flood-opacity=".18"/></filter>
<style>
        svg{overflow:visible} .idle-body{transform-box:fill-box;transform-origin:center bottom;animation:float 3.4s ease-in-out infinite} .sparkle{transform-box:fill-box;transform-origin:center;animation:twinkle 2.2s ease-in-out infinite} @keyframes float{0%,100%{transform:translateY(0)}50%{transform:translateY(-4px)}} @keyframes twinkle{0%,100%{opacity:.35;transform:scale(.8)}50%{opacity:1;transform:scale(1.12)}} @media(prefers-reduced-motion:reduce){.idle-body,.sparkle{animation:none}}
        </style></defs>
<g class="idle-body" filter="url(#shadow)">
  <g transform="translate(120 118)">
    <path d="M-58 53c6 18 27 31 58 31s52-13 58-31c-3-15-13-27-28-34H-30c-15 7-25 19-28 34z" fill="#fffaf2" opacity=".95"/>
    <path d="M-50 42c-7 17-3 33 9 45-14 3-25 0-33-8-8-9-10-21-4-32 6-11 19-15 28-5z" fill="#f0b24c" stroke="#8d6232" stroke-width="4"/>
    <path d="M50 42c7 17 3 33-9 45 14 3 25 0 33-8 8-9 10-21 4-32-6-11-19-15-28-5z" fill="#f0b24c" stroke="#8d6232" stroke-width="4"/>
    <ellipse cx="0" cy="1" rx="60" ry="55" fill="url(#fur)" stroke="#8d6232" stroke-width="4"/>
    <path d="M-47-27c-15-14-21-31-17-48l29 20" fill="#f1b34b" stroke="#8d6232" stroke-width="4" stroke-linejoin="round"/>
    <path d="M47-27c15-14 21-31 17-48L35-55" fill="#f1b34b" stroke="#8d6232" stroke-width="4" stroke-linejoin="round"/>
    <path d="M-29-57-17-48-34-35" fill="#fdcc8a"/><path d="M29-57 17-48 34-35" fill="#fdcc8a"/>
    <ellipse cx="0" cy="8" rx="44" ry="38" fill="url(#cream)"/>
    <ellipse cx="-18" cy="1" rx="6" ry="8" fill="#392a1a"/><ellipse cx="18" cy="1" rx="6" ry="8" fill="#392a1a"/><circle cx="-20" cy="-1" r="2" fill="#fff"/><circle cx="16" cy="-1" r="2" fill="#fff"/><path d="M8-15c6-5 13-7 20-4" fill="none" stroke="#8d6232" stroke-width="3" stroke-linecap="round"/>
    <path d="M-7 15 0 20 7 15" fill="#f1a49d" stroke="#8d6232" stroke-width="3" stroke-linejoin="round"/>
    <path d="M0 20v5" stroke="#8d6232" stroke-width="3" stroke-linecap="round"/>
    <path d="M-9 34c7-3 19-3 26 0" fill="none" stroke="#8d6232" stroke-width="4" stroke-linecap="round"/>
    <path d="M-42-6c7-1 13-4 18-8M42-6c-7-1-13-4-18-8" stroke="#d88e30" stroke-width="4" stroke-linecap="round"/>
    <path d="M-18-18h36" stroke="#fff5be" stroke-width="6" stroke-linecap="round" opacity=".65"/>
    <path d="M-31 54c-6 11-6 23 0 35h15c0-13 2-25 5-35z" fill="#fffdf8" stroke="#8d6232" stroke-width="4"/>
    <path d="M31 54c6 11 6 23 0 35H16c0-13-2-25-5-35z" fill="#fffdf8" stroke="#8d6232" stroke-width="4"/>
    <g transform="translate(2 86)">
      <path d="M-38 21-2-18 44 5 8 42z" fill="url(#cheese)" stroke="#cf9f14" stroke-width="4" stroke-linejoin="round"/>
      <circle cx="14" cy="12" r="5" fill="#f7d94d"/><circle cx="1" cy="25" r="8" fill="#f7d94d"/><circle cx="24" cy="27" r="4" fill="#f7d94d"/>
      <path d="M-6 5q-13 6-18 18M13 6q-1 11 3 20" stroke="#8d6232" stroke-width="4" stroke-linecap="round"/>
      <circle cx="-4" cy="7" r="5" fill="#fffaf2" stroke="#8d6232" stroke-width="3"/><circle cx="13" cy="8" r="5" fill="#fffaf2" stroke="#8d6232" stroke-width="3"/>
    </g>
    <g fill="#ffe789"><circle cx="65" cy="-59" r="5"/><circle cx="76" cy="-48" r="3.2"/><circle cx="-61" cy="-68" r="3.4"/></g>
  </g>
</g>
<g class="sparkle"><circle cx="202" cy="46" r="22" fill="#fff" stroke="#d9cbea" stroke-width="3"/><text x="202" y="55" text-anchor="middle" font-family="Arial,sans-serif" font-size="28" font-weight="900" fill="#755a96">?</text><circle cx="181" cy="72" r="5" fill="#fff" stroke="#d9cbea" stroke-width="2"/></g></svg>
