<svg xmlns="http://www.w3.org/2000/svg" viewBox="0 0 240 240"><rect width="240" height="240" rx="40" fill="#eeeaff"/><g stroke="#3e374c" stroke-width="7" stroke-linecap="round" stroke-linejoin="round"><path fill="#f8f7fa" d="M57 94 44 45l48 28c17-9 39-9 56 0l48-28-13 49c18 17 24 46 14 73-13 35-43 52-77 52s-64-17-77-52c-10-27-4-56 14-73Z"/><path fill="#34313d" d="M44 45 92 73c9-5 18-7 28-8v87c-20 1-34 10-43 26-14-9-26-22-34-41-7-18-6-33 1-43Z" stroke="none"/><path fill="#34313d" d="M147 70 196 45l-13 49c11 10 18 23 20 38-17-8-34-8-49 2-5-25-8-45-7-64Z" stroke="none"/><ellipse cx="90" cy="122" rx="8" ry="10" fill="#f5c9d8" stroke="none"/><ellipse cx="150" cy="122" rx="8" ry="10" fill="#2d2533" stroke="none"/><path d="m113 139 7 5 7-5" fill="none"/><path d="M120 145v7M103 155c8 7 26 7 34 0" fill="none"/><path d="M66 113 50 108M67 128 48 130M174 113l16-5M173 128l19 2" fill="none"/></g><path fill="#6b4aa1" d="M64 70c24-28 88-33 116-4-10 14-31 18-57 18-28 0-48-4-59-14Z"/><ellipse cx="123" cy="51" rx="34" ry="12" fill="#7b59b0"/><text x="120" y="229" text-anchor="middle" font-size="21" font-family="sans-serif" font-weight="700" fill="#4f4168">라벤더냥 · Lavande</text></svg>
