<svg xmlns="http://www.w3.org/2000/svg" viewBox="0 0 240 240" role="img" aria-label="라벤더냥">
<defs>
  <linearGradient id="black" x1="0" y1="0" x2="0" y2="1"><stop offset="0" stop-color="#3f4050"/><stop offset="1" stop-color="#242532"/></linearGradient>
  <linearGradient id="white" x1="0" y1="0" x2="0" y2="1"><stop offset="0" stop-color="#ffffff"/><stop offset="1" stop-color="#f5f6fd"/></linearGradient>
  <linearGradient id="lav" x1="0" y1="0" x2="1" y2="1"><stop offset="0" stop-color="#c99cff"/><stop offset="1" stop-color="#8f6ae6"/></linearGradient>
  <filter id="shadow" x="-20%" y="-20%" width="140%" height="140%"><feDropShadow dx="0" dy="8" stdDeviation="8" flood-color="#51446b" flood-opacity=".18"/></filter>
</defs>
<g filter="url(#shadow)">
  <g transform="translate(120 120)">
    <ellipse cx="0" cy="65" rx="78" ry="22" fill="#e6ddf5" opacity=".75"/>
    <path d="M-72 50c6-21 20-37 40-44h64c20 7 34 23 40 44-10 20-31 35-72 35s-62-15-72-35z" fill="#fefcff" opacity=".96"/>
    <path d="M-56 53c-11 22-8 40 8 50-16 5-29 2-39-9-9-11-10-27-3-39 9-15 23-18 34-2z" fill="url(#black)" stroke="#4e4b61" stroke-width="4"/>
    <path d="M56 53c11 22 8 40-8 50 16 5 29 2 39-9 9-11 10-27 3-39-9-15-23-18-34-2z" fill="url(#black)" stroke="#4e4b61" stroke-width="4"/>
    <path d="M-49-27c-18-14-24-31-19-50l30 21" fill="#313243" stroke="#4e4b61" stroke-width="4" stroke-linejoin="round"/>
    <path d="M49-27c18-14 24-31 19-50L38-56" fill="#313243" stroke="#4e4b61" stroke-width="4" stroke-linejoin="round"/>
    <path d="M-29-58-17-48-35-34" fill="#f7c1d7"/><path d="M29-58 17-48 35-34" fill="#f7c1d7"/>
    <ellipse cx="0" cy="0" rx="61" ry="57" fill="url(#black)" stroke="#4e4b61" stroke-width="4"/>
    <path d="M-31-4c0-18 12-33 31-33s31 15 31 33v18c0 22-13 40-31 40S-31 36-31 14z" fill="url(#white)"/>
    <path d="M-6-17c-5 8-10 12-18 14-4 2-7 6-7 11v17c0 17 12 30 31 30s31-15 31-34V3c0-6-3-11-8-14-10-6-19-7-29-6z" fill="url(#white)" opacity=".98"/>
    <path d="M-28 5c5-7 11-7 17 0" fill="none" stroke="#25242d" stroke-width="4" stroke-linecap="round"/><path d="M11 5c5-7 11-7 17 0" fill="none" stroke="#25242d" stroke-width="4" stroke-linecap="round"/>
    <path d="M-8 17 0 22 8 17" fill="#ef9db2" stroke="#4e4b61" stroke-width="3"/>
    <path d="M0 22v6" stroke="#4e4b61" stroke-width="3" stroke-linecap="round"/>
    <path d="M-17 34c11 14 43 14 54 0" fill="none" stroke="#4e4b61" stroke-width="4" stroke-linecap="round"/>
    <path d="M-38 0h-19M-38 14h-23M38 0h19M38 14h23" stroke="#4e4b61" stroke-width="4" stroke-linecap="round"/>
    <circle cx="-30" cy="20" r="4.5" fill="#f7bfd2" opacity=".82"/><circle cx="30" cy="20" r="4.5" fill="#f7bfd2" opacity=".82"/>
    <g transform="translate(34 -45)">
      <path d="M-16 8c6-12 14-18 24-18 10 0 18 5 24 14-6 4-13 6-20 7-10 2-19 1-28-3z" fill="url(#lav)" stroke="#795bc9" stroke-width="4"/>
      <circle cx="12" cy="-10" r="9" fill="#ac84f6" stroke="#795bc9" stroke-width="4"/>
    </g>
    <path d="M-31 56c-6 12-6 25 0 37h15c0-13 2-26 5-36z" fill="#fff" stroke="#4e4b61" stroke-width="4"/>
    <path d="M31 56c6 12 6 25 0 37H16c0-13-2-26-5-36z" fill="#fff" stroke="#4e4b61" stroke-width="4"/>
    <g transform="translate(10 87)">
      <path d="M-19 0c5 8 9 22 8 40" stroke="#63a360" stroke-width="4" stroke-linecap="round"/>
      <path d="M-2-6c5 8 10 23 8 41" stroke="#63a360" stroke-width="4" stroke-linecap="round"/>
      <path d="M16-4c4 8 8 21 6 39" stroke="#63a360" stroke-width="4" stroke-linecap="round"/>
      <g fill="#9e7aeb" stroke="#7d5cca" stroke-width="2.4"><ellipse cx="-26" cy="-10" rx="5" ry="8"/><ellipse cx="-20" cy="-18" rx="5" ry="8"/><ellipse cx="-14" cy="-8" rx="5" ry="8"/><ellipse cx="-7" cy="-20" rx="5" ry="8"/><ellipse cx="0" cy="-12" rx="5" ry="8"/><ellipse cx="5" cy="-20" rx="5" ry="8"/><ellipse cx="12" cy="-9" rx="5" ry="8"/><ellipse cx="17" cy="-18" rx="5" ry="8"/></g>
      <path d="M-38 8q15 9 25 29M21 3q-6 15-8 32" stroke="#4e4b61" stroke-width="4" stroke-linecap="round"/>
      <circle cx="-34" cy="9" r="5" fill="#fff" stroke="#4e4b61" stroke-width="3"/><circle cx="20" cy="3" r="5" fill="#fff" stroke="#4e4b61" stroke-width="3"/>
    </g>
    <g fill="#dbc8ff" opacity=".7"><circle cx="63" cy="-63" r="4"/><circle cx="74" cy="-52" r="3"/><circle cx="-60" cy="-68" r="3.2"/></g>
  </g>
</g>
</svg>