<svg xmlns="http://www.w3.org/2000/svg" viewBox="0 0 240 240" role="img" aria-label="쁘띠냥">
<defs>
  <linearGradient id="petit-fur" x1="0" y1="0" x2="0" y2="1"><stop offset="0" stop-color="#cfd4dd"/><stop offset="1" stop-color="#9aa3b2"/></linearGradient>
  <linearGradient id="petit-cream" x1="0" y1="0" x2="0" y2="1"><stop offset="0" stop-color="#ffffff"/><stop offset="1" stop-color="#f7f3f8"/></linearGradient>
  <linearGradient id="petit-red" x1="0" y1="0" x2="1" y2="1"><stop offset="0" stop-color="#ff8d93"/><stop offset="1" stop-color="#d73b50"/></linearGradient>
  <radialGradient id="petit-blush" cx="50%" cy="45%" r="55%"><stop offset="0" stop-color="#ffccd4"/><stop offset="1" stop-color="#ffccd4" stop-opacity="0"/></radialGradient>
  <filter id="petit-shadow" x="-20%" y="-20%" width="140%" height="140%"><feDropShadow dx="0" dy="8" stdDeviation="8" flood-color="#6b547f" flood-opacity=".16"/></filter>
</defs>
<g filter="url(#petit-shadow)">
  <ellipse cx="121" cy="218" rx="66" ry="14" fill="#e9dff4"/>
  <path d="M60 176c6-28 24-48 46-57h32c22 9 40 29 46 57-12 19-34 31-62 31s-50-12-62-31z" fill="#fff8fc"/>
  <path d="M70 154c-10-5-22 3-25 17-4 15 5 29 20 32 7 2 14 0 21-5-11-9-17-27-16-44z" fill="#98a0af" stroke="#675b73" stroke-width="4" stroke-linejoin="round"/>
  <path d="M172 154c10-5 22 3 25 17 4 15-5 29-20 32-7 2-14 0-21-5 11-9 17-27 16-44z" fill="#98a0af" stroke="#675b73" stroke-width="4" stroke-linejoin="round"/>
  <path d="M104 164c-6 14-10 31-10 47h55c0-16-3-32-9-47z" fill="url(#petit-red)" stroke="#bc3549" stroke-width="4" stroke-linejoin="round"/>
  <path d="M114 164v47M131 164v47" stroke="#ffb5bf" stroke-width="4" stroke-linecap="round" opacity=".8"/>
  <path d="M81 130c-7-16-4-34 5-49 8-14 20-25 35-30 21-7 45-3 61 12 15 15 22 37 17 57-4 18-15 33-30 43-13 8-27 12-42 11-27-1-46-16-46-44z" fill="url(#petit-fur)" stroke="#675b73" stroke-width="4"/>
  <path d="M86 87c-18-10-26-29-22-51l28 21" fill="#afb7c2" stroke="#675b73" stroke-width="4" stroke-linejoin="round"/>
  <path d="M159 87c18-10 26-29 22-51l-28 21" fill="#afb7c2" stroke="#675b73" stroke-width="4" stroke-linejoin="round"/>
  <path d="M93 41l12 18-16 10" fill="#ffd7df"/><path d="M148 41l-12 18 16 10" fill="#ffd7df"/>
  <path d="M88 118c0-26 15-45 36-54 23-10 47-4 61 16 17 24 13 58-8 77-20 19-51 21-75 6-10-6-14-20-14-45z" fill="url(#petit-cream)" opacity=".95"/>
  <ellipse cx="101" cy="121" rx="7" ry="9" fill="#2d2932"/>
  <ellipse cx="144" cy="121" rx="7" ry="9" fill="#2d2932"/>
  
  <path d="M89 108c5 9 14 9 21 0M134 108c5 9 14 9 21 0" fill="none" stroke="#2d2932" stroke-width="4" stroke-linecap="round"/>
  <path d="M92 142h-24M92 154H65M153 142h24M153 154h27" stroke="#675b73" stroke-width="4" stroke-linecap="round"/>
  <path d="M114 137l8 6 8-6" fill="#f39dac" stroke="#675b73" stroke-width="3" stroke-linejoin="round"/>
  <path d="M122 143v7" stroke="#675b73" stroke-width="3" stroke-linecap="round"/>
  <path d="M105 159c10 14 26 14 36 0" fill="none" stroke="#675b73" stroke-width="4" stroke-linecap="round"/>
  <ellipse cx="92" cy="146" rx="11" ry="8" fill="url(#petit-blush)" opacity=".8"/>
  <ellipse cx="151" cy="146" rx="11" ry="8" fill="url(#petit-blush)" opacity=".8"/>
  <path d="M128 154c21-2 35-17 42-34" fill="none" stroke="#ffffff" stroke-width="7" opacity=".24" stroke-linecap="round"/>
  <g transform="translate(122 67)">
    <ellipse cx="2" cy="8" rx="34" ry="12" fill="#f15967"/>
    <path d="M-33 14C-22-7-2-16 16-16c18 0 35 10 44 25-17 11-38 15-64 15-6 0-12-2-18-10z" fill="url(#petit-red)" stroke="#bc3549" stroke-width="4"/>
    <path d="M-2-8c9-5 18-6 31-3" fill="none" stroke="#ffb8c1" stroke-width="4" stroke-linecap="round" opacity=".9"/>
  </g>
  <g transform="translate(121 196)">
    <path d="M-28-3h56c8 0 13 5 13 12v30h-82V9c0-7 5-12 13-12z" fill="#d62f46" stroke="#8f1d31" stroke-width="4"/>
    <path d="M0-3v42" stroke="#ffb7c0" stroke-width="4"/>
    <path d="M-24 8h13M-24 17h10M12 8h13M12 17h10" stroke="#ffd9de" stroke-width="3" stroke-linecap="round"/>
    <path d="M-12 9c-8 4-14 10-17 17M12 9c8 4 14 10 17 17" fill="none" stroke="#675b73" stroke-width="4" stroke-linecap="round"/>
    <circle cx="-12" cy="11" r="6" fill="#fff" stroke="#675b73" stroke-width="3"/><circle cx="12" cy="11" r="6" fill="#fff" stroke="#675b73" stroke-width="3"/>
  </g>
  <path d="M101 175c-8 6-13 16-14 27H72c-4-11-3-21 5-30 7-7 16-8 24 3z" fill="#fff" stroke="#675b73" stroke-width="4" stroke-linejoin="round"/>
  <path d="M141 175c8 6 13 16 14 27h15c4-11 3-21-5-30-7-7-16-8-24 3z" fill="#fff" stroke="#675b73" stroke-width="4" stroke-linejoin="round"/>
  <path d="M89 107c7-7 15-10 24-10 8 0 16 3 22 10" fill="none" stroke="#818897" stroke-width="4" stroke-linecap="round"/>
  <g fill="#ffd54d"><path d="M184 70l3 9 9 3-9 3-3 9-3-9-9-3 9-3z"/><path d="M197 88l2 6 6 2-6 2-2 6-2-6-6-2 6-2z"/></g>
</g>
</svg>