<svg xmlns="http://www.w3.org/2000/svg" viewBox="0 0 240 240"><rect width="240" height="240" rx="40" fill="#f4eaff"/><g stroke="#594a68" stroke-width="7" stroke-linecap="round" stroke-linejoin="round"><path fill="#9aa0aa" d="M57 94 44 45l48 28c17-9 39-9 56 0l48-28-13 49c18 17 24 46 14 73-13 35-43 52-77 52s-64-17-77-52c-10-27-4-56 14-73Z"/><path fill="#fff" d="M70 157c17 23 83 23 100 0-13 40-87 40-100 0Z" stroke="none"/><ellipse cx="90" cy="122" rx="8" ry="10" fill="#2d2533" stroke="none"/><ellipse cx="150" cy="122" rx="8" ry="10" fill="#2d2533" stroke="none"/><path d="m113 139 7 5 7-5" fill="none"/><path d="M120 145v7"/><path d="M103 155c8 7 26 7 34 0" fill="none"/><path d="M66 113 50 108M67 128 48 130M174 113l16-5M173 128l19 2" fill="none"/></g><path fill="#5b3f8c" d="M64 70c24-28 88-33 116-4-10 14-31 18-57 18-28 0-48-4-59-14Z"/><ellipse cx="123" cy="51" rx="34" ry="12" fill="#6c4ca0"/><text x="120" y="229" text-anchor="middle" font-size="21" font-family="sans-serif" font-weight="700" fill="#594a68">쁘띠냥 · Petit</text></svg>
