<svg xmlns="http://www.w3.org/2000/svg" viewBox="0 0 900 360" role="img" aria-label="세 캐릭터">
<defs>
  <linearGradient id="tr-bg" x1="0" y1="0" x2="1" y2="1"><stop offset="0" stop-color="#fff7fb"/><stop offset="1" stop-color="#fff5e6"/></linearGradient>
  <filter id="tr-shadow" x="-20%" y="-20%" width="140%" height="140%"><feDropShadow dx="0" dy="10" stdDeviation="10" flood-color="#6b547f" flood-opacity=".12"/></filter>
</defs>
<g filter="url(#tr-shadow)">
  <rect x="28" y="48" width="250" height="250" rx="46" fill="url(#tr-bg)"/>
  <rect x="325" y="24" width="250" height="270" rx="46" fill="url(#tr-bg)"/>
  <rect x="622" y="52" width="250" height="250" rx="46" fill="url(#tr-bg)"/>
</g>
<g transform="translate(153 178) scale(.95)">
  <ellipse cx="0" cy="66" rx="62" ry="12" fill="#e9dff4"/><ellipse cx="0" cy="0" rx="55" ry="53" fill="#b8beca" stroke="#675b73" stroke-width="4"/><ellipse cx="0" cy="13" rx="40" ry="34" fill="#fff"/><ellipse cx="-18" cy="10" rx="6" ry="8" fill="#2d2932"/><ellipse cx="19" cy="10" rx="6" ry="8" fill="#2d2932"/><path d="M-8 26l8 6 8-6" fill="#f39dac" stroke="#675b73" stroke-width="3"/><path d="M-12 42c9 7 27 7 36 0" fill="none" stroke="#675b73" stroke-width="4" stroke-linecap="round"/><path d="M-47 48c6-16 20-28 47-28s41 12 47 28" fill="#ee5868" stroke="#bc3549" stroke-width="4"/><rect x="-26" y="72" width="52" height="38" rx="10" fill="#d62f46" stroke="#8f1d31" stroke-width="4"/><g transform="translate(4 -72)"><ellipse cx="0" cy="12" rx="28" ry="9" fill="#f15967"/><path d="M-31 17C-20-2 1-10 18-10c16 0 30 8 38 20-14 11-36 15-59 11-6-1-10-4-15-14z" fill="#eb5466" stroke="#bc3549" stroke-width="4"/></g></g>
<g transform="translate(448 177) scale(1.0)">
  <ellipse cx="0" cy="68" rx="66" ry="13" fill="#efe0c1"/><ellipse cx="0" cy="0" rx="56" ry="54" fill="#ffc961" stroke="#8e6432" stroke-width="4"/><ellipse cx="0" cy="13" rx="41" ry="35" fill="#fff4cf"/><ellipse cx="-18" cy="10" rx="6" ry="8" fill="#3a2a1a"/><ellipse cx="18" cy="10" rx="6" ry="8" fill="#3a2a1a"/><path d="M-8 26l8 6 8-6" fill="#f0a39e" stroke="#8e6432" stroke-width="3"/><path d="M-12 42c9 7 27 7 36 0" fill="none" stroke="#8e6432" stroke-width="4" stroke-linecap="round"/><path d="M-36 78l29-30 39 18-31 31z" fill="#ffe95c" stroke="#d0a114" stroke-width="4"/><circle cx="5" cy="72" r="5" fill="#f8da50"/><circle cx="-7" cy="83" r="7" fill="#f8da50"/></g>
<g transform="translate(748 178) scale(.96)">
  <ellipse cx="0" cy="66" rx="62" ry="12" fill="#e3d8f2"/><ellipse cx="0" cy="0" rx="55" ry="53" fill="#2d2e3d" stroke="#4f4c61" stroke-width="4"/><path d="M-28 4c0-28 14-46 38-46s38 18 38 46v15c0 24-14 41-38 41S-28 43-28 19z" fill="#fff"/><ellipse cx="-15" cy="10" rx="6" ry="8" fill="#25242d"/><ellipse cx="18" cy="10" rx="6" ry="8" fill="#25242d"/><path d="M-7 26l7 6 7-6" fill="#ef9db2" stroke="#4f4c61" stroke-width="3"/><path d="M-10 42c8 7 24 7 32 0" fill="none" stroke="#4f4c61" stroke-width="4" stroke-linecap="round"/><g transform="translate(33 -40)"><path d="M-16 9c6-13 15-19 24-19 10 0 18 5 24 15-7 4-14 6-22 8-9 2-18 1-26-4z" fill="#bc96fb" stroke="#7b5dcb" stroke-width="4"/><circle cx="13" cy="-9" r="10" fill="#ab84f4" stroke="#7b5dcb" stroke-width="4"/></g><g transform="translate(0 72)"><path d="M-20-1c5 8 9 22 8 40" stroke="#61a35d" stroke-width="4" stroke-linecap="round"/><path d="M-2-6c5 8 10 23 8 41" stroke="#61a35d" stroke-width="4" stroke-linecap="round"/><path d="M16-4c4 8 8 21 6 39" stroke="#61a35d" stroke-width="4" stroke-linecap="round"/><g fill="#9b7bea" stroke="#7d5ccb" stroke-width="2.4"><ellipse cx="-21" cy="-3" rx="5" ry="8"/><ellipse cx="-16" cy="-13" rx="5" ry="8"/><ellipse cx="-10" cy="-2" rx="5" ry="8"/><ellipse cx="-4" cy="-15" rx="5" ry="8"/><ellipse cx="3" cy="-7" rx="5" ry="8"/><ellipse cx="8" cy="-16" rx="5" ry="8"/><ellipse cx="14" cy="-5" rx="5" ry="8"/><ellipse cx="20" cy="-13" rx="5" ry="8"/></g></g></g>
</svg>