<svg xmlns="http://www.w3.org/2000/svg" viewBox="0 0 900 360" role="img" aria-label="세 캐릭터">
<defs><linearGradient id="bg" x1="0" y1="0" x2="1" y2="1"><stop offset="0" stop-color="#fff8fb"/><stop offset="1" stop-color="#fff6e8"/></linearGradient><filter id="shadow" x="-20%" y="-20%" width="140%" height="140%"><feDropShadow dx="0" dy="10" stdDeviation="10" flood-color="#6b547f" flood-opacity=".12"/></filter></defs>
<rect x="0" y="0" width="900" height="360" fill="none"/>
<g filter="url(#shadow)"><rect x="35" y="52" width="250" height="245" rx="46" fill="url(#bg)"/><rect x="325" y="28" width="250" height="265" rx="46" fill="url(#bg)"/><rect x="615" y="56" width="250" height="245" rx="46" fill="url(#bg)"/></g>
<g transform="translate(160 177) scale(1.0)"><ellipse cx="0" cy="62" rx="78" ry="22" fill="#eadff6" opacity=".8"/><path d="M-78 48c6-22 21-39 43-46h70c22 7 37 24 43 46-10 22-33 39-78 39s-68-17-78-39z" fill="#fff9fd"/><ellipse cx="0" cy="2" rx="62" ry="58" fill="#b6bcc8" stroke="#635871" stroke-width="4"/><ellipse cx="0" cy="15" rx="43" ry="36" fill="#fff"/><ellipse cx="-19" cy="2" rx="6" ry="8.5" fill="#2c2930"/><ellipse cx="19" cy="2" rx="6" ry="8.5" fill="#2c2930"/><path d="M-8 18 0 24 8 18" fill="#f09dab" stroke="#635871" stroke-width="3"/><path d="M-14 35c9 8 33 8 42 0" fill="none" stroke="#635871" stroke-width="4"/><path d="M-48 46c5-17 20-29 39-33h18c19 4 34 16 39 33" fill="#f16a78" stroke="#bc3548" stroke-width="4"/><g transform="translate(6 -82)"><ellipse cx="0" cy="15" rx="31" ry="10" fill="#ea5164"/><path d="M-39 19c8-17 23-28 43-28 19 0 33 8 42 21-7 8-18 12-28 15-15 3-35 2-57-8z" fill="#f46b7b" stroke="#bc3548" stroke-width="4"/></g></g>
<g transform="translate(450 178) scale(1.03)"><ellipse cx="0" cy="64" rx="78" ry="22" fill="#f8ecd2" opacity=".7"/><path d="M-73 49c6-20 20-36 41-43h64c21 7 35 22 41 43-10 20-31 35-73 35s-63-15-73-35z" fill="#fffdf7" opacity=".95"/><ellipse cx="0" cy="2" rx="61" ry="57" fill="#fdc65b" stroke="#8c6332" stroke-width="4"/><ellipse cx="0" cy="14" rx="43" ry="37" fill="#fff4cf"/><ellipse cx="-18" cy="1" rx="6" ry="8" fill="#3a2a1a"/><ellipse cx="18" cy="1" rx="6" ry="8" fill="#3a2a1a"/><path d="M-7 17 0 22 7 17" fill="#f1a49d" stroke="#8c6332" stroke-width="3"/><path d="M-15 34c10 8 35 8 45 0" fill="none" stroke="#8c6332" stroke-width="4"/><g transform="translate(4 86)"><path d="M-39 22-1-18 47 5 9 43z" fill="#ffd735" stroke="#d0a014" stroke-width="4"/><circle cx="16" cy="11" r="5" fill="#f9dd59"/><circle cx="1" cy="25" r="8" fill="#f9dd59"/></g></g>
<g transform="translate(740 178) scale(1.0)"><ellipse cx="0" cy="65" rx="78" ry="22" fill="#e6ddf5" opacity=".75"/><path d="M-72 50c6-21 20-37 40-44h64c20 7 34 23 40 44-10 20-31 35-72 35s-62-15-72-35z" fill="#fefcff" opacity=".96"/><ellipse cx="0" cy="0" rx="61" ry="57" fill="#2c2d3a" stroke="#4e4b61" stroke-width="4"/><path d="M-31-4c0-18 12-33 31-33s31 15 31 33v18c0 22-13 40-31 40S-31 36-31 14z" fill="#fff"/><ellipse cx="-18" cy="1" rx="6" ry="8" fill="#25242d"/><ellipse cx="18" cy="1" rx="6" ry="8" fill="#25242d"/><path d="M-8 17 0 22 8 17" fill="#ef9db2" stroke="#4e4b61" stroke-width="3"/><path d="M-14 34c10 8 33 8 43 0" fill="none" stroke="#4e4b61" stroke-width="4"/><g transform="translate(34 -45)"><path d="M-16 8c6-12 14-18 24-18 10 0 18 5 24 14-6 4-13 6-20 7-10 2-19 1-28-3z" fill="#b58cf7" stroke="#795bc9" stroke-width="4"/><circle cx="12" cy="-10" r="9" fill="#ac84f6" stroke="#795bc9" stroke-width="4"/></g></g>
</svg>