<svg xmlns="http://www.w3.org/2000/svg" viewBox="0 0 900 340" role="img" aria-label="세 캐릭터">
<defs>
  <linearGradient id="card" x1="0" y1="0" x2="1" y2="1"><stop offset="0" stop-color="#fff8fb"/><stop offset="1" stop-color="#fff7ea"/></linearGradient>
  <filter id="shadow" x="-20%" y="-20%" width="140%" height="140%"><feDropShadow dx="0" dy="10" stdDeviation="10" flood-color="#6b547f" flood-opacity=".12"/></filter>
</defs>
<g filter="url(#shadow)">
  <rect x="32" y="46" width="242" height="242" rx="44" fill="url(#card)"/>
  <rect x="330" y="24" width="240" height="255" rx="44" fill="url(#card)"/>
  <rect x="628" y="52" width="240" height="242" rx="44" fill="url(#card)"/>
</g>
<g transform="translate(153 168)">
  <ellipse cx="0" cy="-10" rx="60" ry="52" fill="#9ca4b0" stroke="#5f5367" stroke-width="4"/>
  <path d="M-46-34c-12-10-19-24-15-41l25 17" fill="#aab1bc" stroke="#5f5367" stroke-width="4" stroke-linejoin="round"/>
  <path d="M46-34c12-10 19-24 15-41L36-58" fill="#aab1bc" stroke="#5f5367" stroke-width="4" stroke-linejoin="round"/>
  <path d="M-28-56-18-48-33-35" fill="#f7c0cb"/><path d="M28-56 18-48 33-35" fill="#f7c0cb"/>
  <ellipse cx="0" cy="-2" rx="40" ry="34" fill="#fff"/><ellipse cx="-18" cy="-8" rx="5" ry="7" fill="#2d2830"/><ellipse cx="18" cy="-8" rx="5" ry="7" fill="#2d2830"/><path d="M-7 5 0 10 7 5" fill="#ef9ca8" stroke="#5f5367" stroke-width="3"/><path d="M-12 19c8 8 28 8 36 0" fill="none" stroke="#5f5367" stroke-width="4" stroke-linecap="round"/>
  <path d="M-48 45c5-18 18-29 38-33h20c20 4 33 15 38 33" fill="#e34a59" stroke="#b93245" stroke-width="4"/>
  <g transform="translate(0 70)"><rect x="-30" y="0" width="60" height="40" rx="10" fill="#d92c41" stroke="#922136" stroke-width="4"/><path d="M0 0v40" stroke="#ffb0ba" stroke-width="4"/></g>
  <g transform="translate(6 -86)"><ellipse cx="0" cy="14" rx="28" ry="9" fill="#e14557"/><path d="M-35 18c8-15 21-25 40-25 17 0 29 7 38 20-7 8-18 11-27 13-10 2-29 1-51-8z" fill="#e34a59" stroke="#b93245" stroke-width="4"/></g>
</g>
<g transform="translate(450 164)">
  <ellipse cx="0" cy="-12" rx="62" ry="54" fill="#f6b24c" stroke="#8d6232" stroke-width="4"/>
  <path d="M-48-35c-12-10-18-24-14-40l25 17" fill="#f1b34b" stroke="#8d6232" stroke-width="4" stroke-linejoin="round"/>
  <path d="M48-35c12-10 18-24 14-40L37-58" fill="#f1b34b" stroke="#8d6232" stroke-width="4" stroke-linejoin="round"/>
  <path d="M-28-56-18-48-33-35" fill="#fdcc8a"/><path d="M28-56 18-48 33-35" fill="#fdcc8a"/>
  <ellipse cx="0" cy="-3" rx="42" ry="35" fill="#fff3cc"/><ellipse cx="-18" cy="-9" rx="5" ry="7" fill="#392a1a"/><ellipse cx="18" cy="-9" rx="5" ry="7" fill="#392a1a"/><path d="M-7 5 0 10 7 5" fill="#f1a49d" stroke="#8d6232" stroke-width="3"/><path d="M-14 19c9 8 31 8 40 0" fill="none" stroke="#8d6232" stroke-width="4" stroke-linecap="round"/>
  <g transform="translate(0 76)"><path d="M-40 22-4-16 42 4 6 40z" fill="#f3ca1c" stroke="#cf9f14" stroke-width="4"/><circle cx="15" cy="11" r="5" fill="#f7d94d"/><circle cx="2" cy="24" r="8" fill="#f7d94d"/></g>
</g>
<g transform="translate(748 171)">
  <ellipse cx="0" cy="-12" rx="60" ry="54" fill="#2a2c37" stroke="#4e4b61" stroke-width="4"/>
  <path d="M-46-34c-13-10-19-24-16-41l26 18" fill="#303241" stroke="#4e4b61" stroke-width="4" stroke-linejoin="round"/>
  <path d="M46-34c13-10 19-24 16-41L36-57" fill="#303241" stroke="#4e4b61" stroke-width="4" stroke-linejoin="round"/>
  <path d="M-28-56-18-48-33-35" fill="#f7bdd4"/><path d="M28-56 18-48 33-35" fill="#f7bdd4"/>
  <path d="M-30-4c0-18 12-32 30-32s30 14 30 32v20c0 20-13 38-30 38S-30 36-30 16z" fill="#fff"/>
  <ellipse cx="-18" cy="-9" rx="5" ry="7" fill="#24242d"/><ellipse cx="18" cy="-9" rx="5" ry="7" fill="#24242d"/><path d="M-7 5 0 10 7 5" fill="#ee9db2" stroke="#4e4b61" stroke-width="3"/><path d="M-14 19c9 8 31 8 40 0" fill="none" stroke="#4e4b61" stroke-width="4" stroke-linecap="round"/>
  <g transform="translate(34 -46)"><path d="M-15 7c6-11 13-17 23-17 9 0 18 5 24 14-6 4-14 6-20 7-9 2-19 1-27-4z" fill="#9e7aec" stroke="#7759c8" stroke-width="4"/><circle cx="12" cy="-10" r="9" fill="#a980f4" stroke="#7759c8" stroke-width="4"/></g>
  <g transform="translate(10 78)"><path d="M-20-1c5 8 9 22 8 40" stroke="#61a35d" stroke-width="4" stroke-linecap="round"/><path d="M-2-5c5 8 10 23 8 41" stroke="#61a35d" stroke-width="4" stroke-linecap="round"/><path d="M15-4c4 8 8 21 6 39" stroke="#61a35d" stroke-width="4" stroke-linecap="round"/><g fill="#9a79e8" stroke="#7b5bc8" stroke-width="2.5"><ellipse cx="-26" cy="-10" rx="5" ry="8"/><ellipse cx="-20" cy="-18" rx="5" ry="8"/><ellipse cx="-14" cy="-8" rx="5" ry="8"/><ellipse cx="-7" cy="-20" rx="5" ry="8"/><ellipse cx="0" cy="-12" rx="5" ry="8"/><ellipse cx="5" cy="-20" rx="5" ry="8"/><ellipse cx="12" cy="-9" rx="5" ry="8"/><ellipse cx="17" cy="-18" rx="5" ry="8"/></g></g>
</g>
</svg>
